<?xml version="1.0" encoding="UTF-8"?>
<!DOCTYPE svg PUBLIC "-//W3C//DTD SVG 1.1//EN" "http://www.w3.org/Graphics/SVG/1.1/DTD/svg11.dtd">
<!-- Creator: CorelDRAW -->
<svg xmlns="http://www.w3.org/2000/svg" xml:space="preserve" width="202.619mm" height="90.3646mm" style="shape-rendering:geometricPrecision; text-rendering:geometricPrecision; image-rendering:optimizeQuality; fill-rule:evenodd; clip-rule:evenodd"
viewBox="0 0 198.51 88.5319"
 xmlns:xlink="http://www.w3.org/1999/xlink">
 <defs>
  <style type="text/css">
   <![CDATA[
    .fil0 {fill:black}
   ]]>
  </style>
 </defs>
 <g id="Layer_x0020_1">
  <metadata id="CorelCorpID_0Corel-Layer"/>
  <path class="fil0" d="M36.6254 56.5702c-1.17762,0.260703 -2.24022,0.0728911 -1.72969,-0.627706 1.78779,-2.29078 3.77917,-3.84461 6.3183,-5.08827 0.648182,-0.317233 1.29137,-0.641618 2.01538,-0.683158 0.416674,-0.024199 0.674928,0.0931712 0.165866,0.578426 -1.14363,0.187714 -1.64602,0.778092 -1.5073,1.77133l-0.686783 0.97433c-0.946604,1.3429 -3.05927,2.73968 -4.57578,3.07504zm152.983 4.35955l0.910452 0.0462427 0.884882 0.135005 0.854706 0.219849 0.819143 0.300088 0.77966 0.375624 0.734789 0.44636c0.353189,0.251298 0.680512,0.508278 1.00921,0.792984 0.313118,0.298618 0.59998,0.599098 0.884392,0.927597 0.267855,0.341236 0.509845,0.6811 0.744684,1.04771l0.411678 0.757518 0.338297 0.79994 0.260409 0.837757 0.178113 0.870382 0.0909179 0.898206 0 0.915449 -0.0909179 0.898402 -0.178113 0.870578 -0.260507 0.837659 -0.338199 0.799744 -0.411678 0.757714 -0.480062 0.710982c-0.267855,0.34055 -0.540413,0.655432 -0.839913,0.968942 -0.313412,0.2995 -0.628391,0.57196 -0.968942,0.839913l-0.710982 0.480062 -0.757714 0.41158 -0.799744 0.338297 -0.837561 0.260507 -0.870578 0.178113 -0.898402 0.0908199 -0.915547 0 -0.898108 -0.0908199 -0.87048 -0.178113 -0.837757 -0.260409 -0.799842 -0.338395 -0.757616 -0.41158c-0.365631,-0.234349 -0.705985,-0.476339 -1.04761,-0.744782 -0.327618,-0.283531 -0.628587,-0.570686 -0.927695,-0.884294 -0.284412,-0.328402 -0.541588,-0.655922 -0.792886,-1.00921l-0.446458 -0.734789 -0.375624 -0.779758 -0.29999 -0.819045 -0.219947 -0.854804 -0.135005 -0.884784 -0.0462427 -0.910452 0.0462427 -0.91006 0.135005 -0.884784 0.219947 -0.854706 0.29999 -0.819339 0.375624 -0.779464 0.446458 -0.734887c0.251984,-0.353874 0.509258,-0.681492 0.792592,-1.00882 0.299696,-0.314979 0.600861,-0.601351 0.928185,-0.884588l0.685509 -0.512981c0.368472,-0.235916 0.73136,-0.444596 1.11923,-0.643283l0.800332 -0.338493 0.837463 -0.260507 0.870578 -0.177819 0.897814 -0.0913098 0.457822 -0.0117566zm0.000195944 1.21965c0.397962,0.0100911 0.776427,0.0385029 1.17263,0.0888605 0.380817,0.0677965 0.741549,0.151171 1.11512,0.257176 0.359949,0.121877 0.699715,0.255315 1.04703,0.412461 0.334476,0.171549 0.64779,0.351523 0.965806,0.555598 0.304986,0.216616 0.587635,0.43862 0.872047,0.684921 0.270108,0.25747 0.518369,0.517781 0.763984,0.801312 0.231605,0.294601 0.440383,0.588223 0.643479,0.904868 0.18791,0.326736 0.353091,0.649553 0.50916,0.994218 0.139806,0.355442 0.257176,0.70236 0.362006,1.07122 0.0876848,0.379739 0.153522,0.747133 0.202508,1.1354 0.0302733,0.399235 0.0392867,0.782795 0.0294895,1.18419 -0.0294895,0.391691 -0.076516,0.765944 -0.145978,1.15421 -0.0865091,0.374546 -0.18693,0.728715 -0.310375,1.09395 -0.139022,0.352111 -0.288527,0.683746 -0.461741,1.02126 -0.187028,0.325854 -0.382188,0.629861 -0.599784,0.936317 -0.231409,0.294209 -0.466934,0.566277 -0.725482,0.837267 -0.270892,0.258548 -0.54296,0.493974 -0.837169,0.725482 -0.306456,0.217497 -0.610463,0.412755 -0.936219,0.599784 -0.337611,0.173116 -0.669344,0.322621 -1.02136,0.461643 -0.365337,0.123542 -0.719407,0.223964 -1.09405,0.310375 -0.388262,0.06956 -0.762319,0.116489 -1.15411,0.146076 -0.402076,0.00979718 -0.783285,0.000783775 -1.18428,-0.0295875 -0.387185,-0.0489859 -0.754089,-0.114529 -1.1354,-0.20241 -0.367786,-0.104536 -0.714705,-0.22171 -1.07122,-0.362006 -0.343783,-0.155481 -0.666502,-0.320858 -0.99412,-0.50916 -0.315861,-0.202312 -0.609777,-0.411384 -0.904868,-0.643479 -0.283237,-0.245028 -0.543156,-0.493288 -0.80141,-0.764082 -0.245615,-0.283824 -0.467914,-0.566473 -0.684921,-0.871949 -0.203781,-0.317625 -0.38405,-0.630743 -0.555598,-0.965904 -0.156951,-0.346722 -0.290389,-0.686783 -0.412461,-1.04693 -0.105908,-0.373175 -0.189282,-0.733809 -0.257176,-1.11512 -0.0503575,-0.395806 -0.0786714,-0.774761 -0.0887625,-1.17272 0.0100911,-0.398843 0.0385029,-0.777603 0.0887625,-1.17204 0.0678945,-0.382482 0.151562,-0.743018 0.257176,-1.11531 0.122465,-0.361222 0.255804,-0.700401 0.412461,-1.04644 0.172039,-0.336435 0.352895,-0.649945 0.555598,-0.96659 0.217987,-0.306358 0.439894,-0.588909 0.685215,-0.872047 0.258646,-0.271774 0.518663,-0.519055 0.80092,-0.763886 0.296169,-0.231997 0.589203,-0.440971 0.904868,-0.643087 0.328402,-0.188498 0.650729,-0.353678 0.994316,-0.509258 0.356911,-0.140688 0.70383,-0.257764 1.07152,-0.362398 0.381796,-0.0881747 0.748505,-0.153228 1.13569,-0.202312l0.786714 -0.0398745zm-3.89595 12.2088l0 -9.76231 4.15038 0c1.0432,0 1.80023,0.0886645 2.27285,0.263642 0.47291,0.175174 0.852453,0.48643 1.13657,0.93426 0.284118,0.450083 0.425002,0.961496 0.425002,1.53875 0,0.73185 -0.21593,1.33879 -0.645536,1.8161 -0.429607,0.475065 -1.07505,0.777309 -1.93191,0.900165 0.427255,0.249926 0.779562,0.522582 1.05692,0.820416 0.27726,0.297736 0.650043,0.825021 1.1205,1.5842l1.1933 1.90477 -2.35701 0 -1.4251 -2.12521c-0.506906,-0.759184 -0.852453,-1.2365 -1.0387,-1.43411 -0.18644,-0.197805 -0.384148,-0.331929 -0.593317,-0.406975 -0.209072,-0.0727931 -0.538747,-0.109141 -0.993337,-0.109141l-0.397766 0 0 4.07543 -1.97286 0zm1.97286 -5.63456l1.45704 0c0.945526,0 1.53649,-0.0386989 1.7729,-0.118252 0.234055,-0.0795531 0.418242,-0.218183 0.552365,-0.413637 0.131772,-0.195454 0.199961,-0.43862 0.199961,-0.731948 0,-0.329577 -0.0886645,-0.59322 -0.263642,-0.795531 -0.175076,-0.202312 -0.422749,-0.329479 -0.743214,-0.38405 -0.159106,-0.0203781 -0.638776,-0.0318408 -1.43881,-0.0318408l-1.53659 0 0 2.47526zm-82.168 -20.8665c1.59959,1.85245 -1.97021,5.42176 -5.83971,8.17036 -3.64269,2.58734 -7.24492,4.07847 -8.46232,2.79876 -0.91104,-1.33183 2.2077,-5.89399 5.96237,-8.71283 3.16224,-2.37396 7.05554,-3.56696 8.33966,-2.25629zm42.7232 -9.12069c-2.24287,0.152346 -5.43861,0.402762 -8.11462,0.528852 2.33487,-4.44244 9.5888,-15.7177 13.4487,-21.4475 1.00705,-1.49485 1.24552,-3.05888 1.24552,-4.08063 0,-2.42235 -2.53296,-1.57304 -3.44783,-0.424512 -3.84696,4.82805 -14.3631,23.1492 -15.6709,26.1927 -2.83384,0.140786 -7.28734,0.372587 -10.2014,0.57676 -2.97521,0.250906 -2.27794,5.41579 0.738904,4.81845 3.05094,-0.604192 6.10903,-1.22808 7.47917,-1.5025l-0.355736 0.737434c-5.30547,5.75261 -12.9756,13.8368 -19.8078,17.511 -1.69991,0.914077 -5.20955,2.47418 -5.01312,0.561771 0.104536,-1.01734 1.38993,-3.23768 2.40051,-4.69089 2.24875,-3.23366 6.40128,-6.68697 9.5985,-9.89917 1.16342,-1.1689 2.78505,-2.83413 2.24453,-4.58116 -0.522288,-1.68776 -1.70873,-2.09993 -3.02282,-2.12295 -0.842264,-0.0148917 -1.73733,0.130205 -2.54335,0.20143 -3.04516,0.268933 -5.89369,0.524541 -8.9609,0.776035 -0.700793,0.0574115 -0.970901,0.348094 -1.1982,0.877338 -3.67737,-0.64681 -6.67345,0.29901 -10.974,2.59929 -1.46017,0.780934 -4.08112,2.63182 -6.19554,5.80944 -0.849416,1.27657 -1.69981,2.85539 -2.2271,4.25286 -0.46517,1.23327 -0.659742,2.32781 -0.656117,2.9227 0.0113647,1.81934 0.772116,3.3137 3.43107,3.75555 0.542078,0.0845497 1.08543,0.13187 1.623,0.103066 5.62309,-0.302733 12.9774,-7.59282 16.1259,-12.5957 1.8407,-0.810619 1.59096,-1.84001 1.65915,-2.88204l5.65533 -0.560301c-4.14734,2.92613 -18.5894,22.5275 -5.73272,20.567 6.07259,-0.925834 15.5942,-10.9236 21.3376,-18.0155 0.270892,-0.334868 0.27246,-0.385225 0.0827862,0.0260605 -2.66385,5.78308 -5.08239,11.522 -7.37924,17.5464l0.00666209 -0.0509454 0.00656411 -0.0508474 0.00666209 -0.0508474 0.00646614 -0.0508474 0.00656411 -0.0508474 0.00656411 -0.0507494 0.00666209 -0.0510433 0.00656411 -0.0508474 0.00666209 -0.0507494 0.00656411 -0.0508474 0.00646614 -0.0507494 0.00656411 -0.0510433 0.00666209 -0.0508474 0.00656411 -0.0507494 0.00666209 -0.0508474 0.00656411 -0.0509454 0.00656411 -0.0507494 0.00646614 -0.0508474 0.00666209 -0.0509454 0.00656411 -0.0508474 0.00656411 -0.0508474 0.00666209 -0.0508474 0.00656411 -0.0507494 0.00666209 -0.0510433 0.00646614 -0.0507494 0.00656411 -0.0508474 0.00656411 -0.0508474 0.00666209 -0.0508474 0.00656411 -0.0508474 0.00666209 -0.0509454 0.00656411 -0.0507494 0.00646614 -0.0509454 0.00656411 -0.0508474 0.00666209 -0.0507494 0.00656411 -0.0508474 0.00656411 -0.0509454 0.00666209 -0.0508474 0.00646614 -0.0508474 0.00656411 -0.0507494 0.00666209 -0.0509454 0.00656411 -0.0509454 0.00656411 -0.0507494 0.00666209 -0.0508474 0.00646614 -0.0509454 0.00656411 -0.0507494 0.00666209 -0.0508474 0.00656411 -0.0510433 0.00656411 -0.0507494 0.00666209 -0.0508474 0.00646614 -0.0507494 0.00656411 -0.0509454 0.00666209 -0.0509454 0.00656411 -0.0507494 0.00656411 -0.0508474 0.00666209 -0.0509454 0.00646614 -0.0507494 0.00656411 -0.0508474 0.00666209 -0.0509454 0.00656411 -0.0508474 0.00656411 -0.0508474 0.00666209 -0.0508474 0.00646614 -0.0507494 0.00656411 -0.0510433 0.00656411 -0.0507494c0.142451,-1.1013 -0.72509,-0.71637 -0.995786,0.0167532 -1.00989,2.73077 -3.32056,7.18094 -3.04928,10.0408 0.189869,2.00294 1.91084,1.79318 2.7585,0.313412 1.42108,-2.48075 2.27696,-4.67992 3.28656,-6.86067 4.15636,-9.24404 8.42421,-17.2784 12.1143,-24.1203 2.02253,-0.437248 3.2655,-0.666894 5.05515,-1.00813 0.454295,-0.0498677 0.57676,-0.187322 -0.0232193,0.336827 -0.392181,0.342706 -0.742823,0.709512 -1.12041,1.0675 -0.239737,0.260409 -0.546977,0.632702 -0.921915,1.07446 -1.89242,2.22994 -6.61379,9.91485 -2.24659,11.9792 6.31095,2.98324 14.0441,-5.33907 18.2328,-9.59526 0.898402,0.509454 2.66885,-1.77936 3.7293,-1.8258 -1.34006,3.04389 -2.41775,5.64906 -2.51415,6.94728 -0.140198,1.88517 1.42049,3.16292 3.05643,2.43127 9.29645,-4.15704 15.9534,-12.6678 26.0103,-16.6682 -7.35445,13.04 -13.2016,25.6239 -20.3449,38.8009 -0.619476,1.14363 0.730184,1.51445 1.23807,0.652199 7.60781,-12.9009 14.0378,-25.31 21.6908,-38.1557 0.61781,-1.03723 1.21446,-1.93161 1.55648,-2.73439 1.02782,-2.41197 -0.636229,-3.41001 -2.56118,-3.29205 -2.14323,0.131674 -4.7099,1.6716 -7.14303,2.91917 -6.54707,3.77466 -10.928,7.42921 -17.3892,11.5921 0.953756,-1.6327 2.63525,-4.78945 4.93915,-6.87713 2.99941,-2.71813 1.09474,-5.71813 -0.980012,-5.6809 -3.6807,0.066229 -4.95385,3.44253 -8.05564,5.09992 -0.269619,0.144019 -0.541882,0.20868 -0.8019,0.27001 -0.0356618,-0.169295 -0.0711276,-0.33379 -0.122563,-0.497893 -0.620064,-1.97639 -1.73263,-2.47585 -4.98471,-2.37131 -2.0432,0.0659351 -4.26217,0.834132 -6.40373,1.83932zm-3.00852 7.67521c2.66532,-2.76379 6.14793,-4.64524 10.2642,-5.09424l0.000685803 0.0195944 0.000489859 0.0196923 0.000685803 0.0196923 0.000587831 0.0196923 0.000587831 0.0196923 0.000587831 0.0194964 0.000489859 0.0196923 0.000685803 0.0196923 0.000685803 0.0196923 0.000489859 0.0195944 0.000685803 0.0196923 0.000587831 0.0195944 0.000489859 0.0196923 0.000685803 0.0195944 0.000685803 0.0196923 0.000489859 0.0196923 0.000685803 0.0197903 0.000587831 0.0195944 0.000489859 0.0195944 0.000685803 0.0196923 0.000489859 0.0196923 0.000685803 0.0196923 0.000685803 0.0196923 0.000489859 0.0194964 0.000587831 0.0196923 0.000685803 0.0196923 0.000489859 0.0196923 0.000685803 0.0196923 0.000685803 0.0195944 0.000489859 0.0195944 0.000587831 0.0196923 0.000685803 0.0195944 0.000489859 0.0196923 0.000685803 0.0196923 0.000489859 0.0196923 0.000685803 0.0194964 0.000587831 0.0196923 0.000587831 0.0196923 0.000587831 0.0196923 0.000685803 0.0196923 0.000489859 0.0195944 0.000685803 0.0195944 0.000587831 0.0196923 0.000587831 0.0196923 0.000587831 0.0195944 0.000587831 0.0196923 0.000587831 0.0196923 0.000685803 0.0196923 0.000489859 0.0194964 0.000685803 0.0196923 0.000587831 0.0196923 0.000587831 0.0196923 0.000587831 0.0196923 0.000685803 0.0195944 0.000489859 0.0195944 0.000685803 0.0196923 0.000587831 0.0196923 0.000587831 0.0195944 0.000587831 0.0196923 0.000489859 0.0196923 0.000685803 0.0194964 0.000685803 0.0196923 0.000489859 0.0196923 0.000685803 0.0196923c0.0380131,1.24463 0.142255,1.85314 0.602625,2.99216 -2.18634,1.69403 -10.6849,9.27166 -14.2023,7.81864 -2.13314,-0.881159 2.44459,-6.09052 3.29695,-6.97452zm-51.2868 -4.17918c6.51111,-9.73615 13.9472,-18.8251 21.647,-27.5291 3.97472,-4.49279 7.9945,-8.93885 12.1192,-13.2737 1.09013,-1.14558 -0.13138,-2.03674 -1.23817,-0.91202 -17.125,17.4084 -36.0193,37.214 -46.3644,60.2297 3.31057,-12.1054 8.02164,-27.3565 11.7465,-39.4762 1.63201,-5.31086 -1.32233,-7.58821 -3.80483,-3.2464 -3.10747,5.43499 -6.25501,10.845 -9.20436,16.3827 -6.50709,13.1169 -14.3784,25.6038 -21.0434,38.6679 -0.954148,1.87028 -2.25502,3.43009 -2.61859,4.76398 -1.0964,4.02047 2.70402,4.50768 4.27618,1.58303l24.3743 -45.3376c0.753599,-1.6232 -1.39434,6.39688 -4.24884,16.71 -2.77593,10.0301 -5.75555,20.0051 -8.53198,30.0275 -0.404232,1.45831 -0.759674,3.01763 -0.871362,4.35201 -0.23572,2.81336 1.36788,4.13686 2.7633,2.88459 0.837463,-0.751248 1.39483,-2.70686 2.0097,-5.04957 2.3813,-9.07219 5.80552,-17.5654 9.96942,-25.598 1.68041,-3.24483 3.71764,-6.80708 5.69843,-10.0171 1.07416,-1.74135 2.18448,-3.46105 3.32183,-5.16155zm-80.1373 26.3806c5.34907,-3.03301 10.4557,-7.28597 14.58,-12.0014 2.34447,-2.68061 5.51425,-6.79337 4.04683,-7.60546 -1.29979,-0.719407 -3.79749,0.525619 -6.20201,1.47644 -2.09464,0.828254 -3.61898,1.70951 -5.69804,2.56823l-3.13941 6.71979c1.82394,-1.22857 3.48554,-2.13461 5.16792,-3.19261 0.53522,-0.0737728 0.999313,-0.0330165 0.966688,0.808856 -0.0720093,0.155187 -0.116097,0.336925 -0.24297,0.429509 -2.84373,2.07788 -4.69569,3.37611 -7.7822,5.83393 -0.325267,0.674144 -0.947094,1.8837 -1.28764,2.53581 -0.924658,1.77006 -2.75095,2.54756 -2.13677,0.768295 0.0710296,-0.174586 0.298128,-0.83472 0.365435,-1.0001 -0.789751,0.645634 -5.01302,4.21416 -5.37268,4.6662 -0.393357,0.49466 3.65327,-0.262369 6.73488,-2.00754zm61.5646 -32.3611l-6.53982 2.80533c-2.56853,4.35406 -5.53129,9.33721 -8.19848,13.9341 -4.51004,7.77358 -8.40197,14.6466 -12.8777,22.4441 -0.342412,0.596257 -0.707357,1.17684 -1.12893,1.53914 -1.52131,1.30724 -3.54168,1.77584 -2.9561,-1.47301 0.624081,-3.46281 1.58136,-6.75702 2.66356,-11.1824 0.234936,-0.960614 1.6087,-0.781815 1.46879,0.0540805 -0.398647,2.38072 -0.797295,4.76143 -1.19594,7.14234 4.82893,-8.67942 8.60369,-15.2405 13.1612,-23.4295 0.264034,-0.474674 0.222886,-0.419319 -0.140492,-0.122661 -2.24277,1.83149 -4.6275,3.70755 -6.78484,5.63064 -3.33682,2.97462 -6.90251,6.17252 -9.01684,6.50739 -1.1688,0.185069 -1.57744,-1.13187 -1.42667,-2.68227 -2.26168,2.56187 -8.79062,5.5601 -11.178,1.93093 -4.45302,5.39345 -12.2631,11.7335 -19.1991,13.9771 -1.1785,0.381013 -2.31723,0.683256 -3.53943,0.935925 -1.78534,0.369256 -4.87498,0.767805 -5.87635,-0.560301 -0.609777,-0.921719 -0.672675,-2.15528 0.232487,-3.21935 2.52385,-2.96718 7.91015,-6.4198 11.2852,-8.63749l1.19722 -2.83001 1.6905 -4.17047c-5.25844,2.91515 -10.6533,6.26148 -15.8331,9.62867 -1.17204,0.761927 -1.86127,-0.683354 -0.15842,-1.94366 6.09689,-4.87988 13.0436,-8.65669 17.4445,-12.4939 1.71078,-1.60027 2.93298,-5.04947 5.11413,-9.74702l2.07798 -4.56225c-2.74272,-0.808268 -5.2655,-0.0412461 -7.64396,2.14117 -1.15832,1.06241 -3.41363,1.52719 -3.41363,-1.13882 0.419417,-4.69373 9.89339,-5.80219 13.263,-5.18261l6.61486 -13.4975c2.78299,-5.15645 4.83158,-0.953168 3.86832,1.51151 -2.02282,4.35759 -5.03046,8.8063 -7.19182,13.0829 2.12432,0.859017 3.00186,3.02743 2.58342,5.25609 -0.431566,2.29891 -2.08425,4.4005 -3.38228,6.19545 2.6184,-0.154698 5.89467,-0.59753 6.0235,4.37964 2.33496,-0.779366 10.2251,-6.29881 11.9438,-0.899675 0.642107,2.01753 -0.601351,5.30988 -2.89056,6.89624l-0.0123445 1.92573c5.28901,-3.97521 10.7785,-7.86831 16.0998,-11.6143l0.000195944 -0.000391887c0.585774,-1.05476 1.17586,-2.11884 1.77172,-3.19545 -0.490055,0.263642 -1.93396,1.07945 -3.2221,1.88233 -2.08229,1.29783 -5.13274,4.35916 -7.48769,4.00058 -1.52238,-0.231703 -2.82345,-2.66562 -0.661506,-4.33075 2.82374,-2.17478 11.0364,-5.59409 14.2982,-6.64847l12.9923 -23.1897c1.42441,-2.54237 5.68746,-0.675908 3.57509,2.59136 -2.5988,4.1976 -11.9767,19.5514 -11.7495,19.5514 1.21456,-0.266973 3.77858,-0.767511 4.99323,-1.03478 2.02488,-0.46713 0.932398,1.28206 -0.657587,1.84265zm-46.3395 0.445772c-1.45449,2.62888 -2.92955,5.46017 -4.34368,8.21739 -0.164985,0.321446 4.07249,-1.58244 4.95022,-5.75056 0.198687,-0.943763 0.169295,-1.8213 -0.606544,-2.46683z"/>
 </g>
</svg>
